<mxfile host="app.diagrams.net" agent="Mozilla/5.0 (iPad; CPU OS 17_6_1 like Mac OS X) AppleWebKit/605.1.15 (KHTML, like Gecko) Version/17.6 Mobile/15E148 Safari/604.1" version="24.7.7">
  <diagram id="1JJ-UvxjRfw-XplDersZ" name="Page-1">
    <mxGraphModel dx="739" dy="1255" grid="1" gridSize="10" guides="1" tooltips="1" connect="1" arrows="1" fold="1" page="1" pageScale="1" pageWidth="1169" pageHeight="827" math="0" shadow="0">
      <root>
        <mxCell id="0" />
        <mxCell id="1" parent="0" />
        <mxCell id="GdHHIwHBryNfU4gJc2sP-62" style="edgeStyle=none;rounded=0;orthogonalLoop=1;jettySize=auto;html=1;sourcePerimeterSpacing=10;endArrow=none;endFill=0;targetPerimeterSpacing=10;labelBackgroundColor=none;fontColor=default;strokeColor=#182E3E;exitX=0.5;exitY=1;exitDx=0;exitDy=0;exitPerimeter=0;entryX=0.5;entryY=0;entryDx=0;entryDy=0;entryPerimeter=0;" parent="1" source="i--9-TYG0iBbZ-GK-cEJ-16" edge="1" target="i--9-TYG0iBbZ-GK-cEJ-14">
          <mxGeometry relative="1" as="geometry">
            <mxPoint x="550" y="285" as="targetPoint" />
            <mxPoint x="549.9950000000003" y="230" as="sourcePoint" />
            <Array as="points">
              <mxPoint x="550" y="260" />
            </Array>
          </mxGeometry>
        </mxCell>
        <mxCell id="GdHHIwHBryNfU4gJc2sP-48" style="edgeStyle=none;rounded=0;orthogonalLoop=1;jettySize=auto;html=1;endArrow=none;endFill=0;sourcePerimeterSpacing=10;targetPerimeterSpacing=10;labelBackgroundColor=none;fontColor=default;strokeColor=#182E3E;" parent="1" edge="1">
          <mxGeometry relative="1" as="geometry">
            <mxPoint x="779.9950000000003" y="469.9993834740342" as="sourcePoint" />
            <mxPoint x="330" y="646.51" as="targetPoint" />
          </mxGeometry>
        </mxCell>
        <mxCell id="i--9-TYG0iBbZ-GK-cEJ-14" value="" style="fontColor=#0066CC;verticalAlign=top;verticalLabelPosition=bottom;labelPosition=center;align=center;html=1;outlineConnect=0;fillColor=#CCCCCC;strokeColor=#6881B3;gradientColor=none;gradientDirection=north;strokeWidth=2;shape=mxgraph.networks.router;" vertex="1" parent="1">
          <mxGeometry x="430" y="320" width="220" height="80" as="geometry" />
        </mxCell>
        <mxCell id="i--9-TYG0iBbZ-GK-cEJ-16" value="" style="html=1;outlineConnect=0;fillColor=#CCCCCC;strokeColor=#6881B3;gradientColor=none;gradientDirection=north;strokeWidth=2;shape=mxgraph.networks.cloud;fontColor=#ffffff;" vertex="1" parent="1">
          <mxGeometry x="420" y="-30" width="260" height="200" as="geometry" />
        </mxCell>
      </root>
    </mxGraphModel>
  </diagram>
</mxfile>
